<?xml version="1.0" standalone="no"?>
<!DOCTYPE svg PUBLIC "-//W3C//DTD SVG 20010904//EN"
 "http://www.w3.org/TR/2001/REC-SVG-20010904/DTD/svg10.dtd">
<svg version="1.0" xmlns="http://www.w3.org/2000/svg"
 width="1280.000000pt" height="1280.000000pt" viewBox="0 0 1280.000000 1280.000000"
 preserveAspectRatio="xMidYMid meet">
<metadata>
Created by potrace 1.14, written by Peter Selinger 2001-2017
</metadata>
<g transform="translate(0.000000,1280.000000) scale(0.100000,-0.100000)"
fill="#000000" stroke="none">
<path d="M6035 12791 c-6 -5 -28 -11 -50 -12 -22 -2 -44 -6 -50 -9 -5 -4 -41
-7 -80 -6 -38 1 -88 -3 -110 -8 -22 -5 -62 -10 -90 -11 -27 -2 -50 -4 -50 -5
0 0 -18 -3 -40 -6 -93 -11 -111 -13 -135 -18 -14 -2 -50 -7 -80 -11 -30 -4
-64 -12 -75 -18 -11 -5 -36 -9 -56 -9 -21 1 -55 -5 -77 -12 -22 -8 -42 -12
-45 -9 -3 2 -14 0 -25 -6 -10 -6 -34 -12 -53 -15 -19 -3 -51 -9 -71 -14 -21
-6 -38 -8 -38 -5 0 3 -6 1 -12 -5 -7 -5 -31 -12 -53 -15 -22 -4 -62 -13 -90
-22 -27 -9 -60 -18 -72 -20 -12 -2 -39 -9 -60 -16 -21 -7 -40 -14 -43 -14 -3
-1 -12 -4 -20 -7 -8 -4 -30 -9 -48 -12 -19 -3 -48 -12 -65 -19 -18 -8 -63 -24
-102 -37 -38 -12 -83 -28 -100 -35 -42 -18 -105 -35 -105 -27 0 3 -6 -1 -12
-10 -7 -9 -25 -19 -41 -22 -15 -4 -51 -17 -80 -30 -88 -39 -141 -61 -152 -62
-5 0 -39 -14 -74 -32 -34 -18 -69 -32 -76 -32 -7 0 -15 -5 -17 -11 -2 -5 -10
-11 -18 -13 -27 -5 -313 -151 -400 -203 -19 -12 -57 -34 -85 -49 -27 -14 -62
-35 -77 -45 -14 -11 -31 -19 -37 -19 -6 0 -11 -4 -11 -10 0 -5 -5 -10 -12 -10
-6 0 -26 -11 -45 -26 -18 -14 -33 -23 -33 -20 0 4 -9 -3 -20 -14 -11 -11 -31
-22 -45 -26 -14 -3 -25 -10 -25 -15 0 -5 -15 -16 -32 -25 -18 -9 -52 -32 -75
-50 -23 -19 -46 -34 -51 -34 -5 0 -17 -9 -27 -20 -10 -11 -23 -20 -30 -20 -7
0 -20 -9 -30 -20 -11 -12 -55 -47 -99 -78 -44 -31 -89 -66 -100 -78 -12 -11
-41 -34 -66 -51 -25 -17 -63 -48 -85 -70 -22 -21 -57 -51 -78 -67 -21 -15 -68
-57 -104 -92 -36 -35 -70 -64 -75 -64 -4 0 -8 -7 -8 -15 0 -8 -5 -15 -11 -15
-18 0 -330 -322 -424 -437 -16 -20 -49 -56 -72 -79 -23 -23 -53 -60 -66 -81
-14 -21 -35 -49 -47 -63 -12 -14 -35 -44 -52 -67 -16 -24 -32 -43 -36 -43 -4
0 -23 -24 -42 -53 -19 -28 -41 -60 -50 -69 -31 -35 -40 -47 -40 -56 0 -5 -11
-22 -25 -38 -15 -16 -33 -41 -43 -56 -9 -16 -20 -28 -24 -28 -4 0 -8 -7 -8
-15 0 -8 -21 -44 -47 -81 -67 -96 -141 -219 -223 -369 -18 -33 -39 -68 -48
-77 -8 -10 -11 -18 -6 -18 5 0 4 -4 -2 -8 -10 -7 -165 -317 -164 -327 1 -3
-10 -27 -23 -53 -14 -26 -37 -75 -51 -110 -15 -34 -37 -84 -49 -110 -11 -26
-20 -51 -19 -56 2 -4 -1 -13 -6 -20 -8 -9 -59 -141 -66 -171 -2 -5 -6 -17 -9
-25 -20 -45 -96 -280 -92 -280 2 0 -2 -15 -10 -34 -8 -18 -17 -48 -20 -66 -3
-18 -10 -40 -15 -50 -5 -9 -11 -28 -14 -41 -9 -50 -57 -245 -68 -278 -12 -39
-21 -91 -22 -136 -1 -16 -5 -33 -10 -36 -5 -4 -10 -24 -13 -45 -6 -59 -10 -81
-21 -101 -5 -10 -8 -36 -7 -57 2 -22 -1 -50 -5 -61 -5 -12 -11 -48 -13 -81 -3
-32 -9 -70 -14 -84 -5 -14 -8 -43 -7 -65 1 -22 -2 -56 -7 -75 -5 -20 -9 -69
-10 -110 -1 -41 -7 -81 -13 -89 -9 -12 -8 -13 3 -6 11 6 12 1 6 -26 -14 -59
-17 -721 -4 -746 9 -17 9 -26 -1 -38 -8 -10 -9 -15 -2 -15 15 0 13 -110 -2
-129 -8 -11 -8 -13 2 -7 8 5 12 -3 13 -28 1 -36 4 -54 9 -58 1 -2 3 -38 5 -80
1 -43 7 -83 13 -90 6 -7 9 -29 8 -48 -1 -19 2 -55 7 -80 5 -25 10 -63 12 -85
3 -43 10 -84 19 -113 7 -23 16 -65 27 -132 19 -106 26 -135 38 -158 6 -11 8
-22 5 -25 -3 -3 -1 -21 4 -39 6 -18 13 -47 15 -64 3 -17 10 -41 16 -53 7 -11
10 -21 7 -21 -6 0 11 -72 25 -106 7 -16 13 -36 15 -44 3 -17 21 -76 42 -140 8
-25 16 -55 17 -68 2 -13 8 -29 14 -36 6 -7 12 -22 14 -34 2 -12 6 -25 10 -28
4 -4 7 -17 7 -29 0 -11 4 -25 9 -31 6 -5 11 -20 13 -34 2 -14 11 -41 20 -60 8
-19 22 -53 31 -75 28 -74 80 -200 103 -252 13 -28 24 -59 24 -67 0 -9 5 -16
10 -16 6 0 10 -5 10 -11 0 -6 16 -44 35 -85 19 -40 35 -78 35 -83 0 -5 4 -11
9 -13 7 -3 48 -87 51 -106 1 -4 7 -14 14 -22 7 -8 30 -49 51 -90 21 -41 43
-82 50 -90 6 -8 38 -62 70 -120 33 -58 84 -143 115 -188 30 -46 63 -97 73
-113 9 -17 26 -40 37 -51 11 -12 20 -30 20 -40 0 -11 5 -16 10 -13 6 3 10 0
10 -7 0 -7 14 -27 30 -45 17 -18 30 -38 30 -46 0 -8 6 -17 14 -20 8 -3 31 -31
50 -61 19 -30 42 -63 51 -73 8 -10 33 -38 55 -63 22 -25 40 -48 40 -52 0 -4
18 -26 40 -49 22 -23 40 -46 40 -50 0 -4 28 -37 62 -73 35 -36 81 -87 103
-113 56 -65 425 -433 435 -433 4 0 37 -28 73 -62 37 -35 90 -83 118 -108 29
-25 60 -53 71 -62 10 -10 20 -18 23 -18 3 0 32 -21 64 -47 95 -77 104 -84 139
-105 17 -11 32 -24 32 -29 0 -5 5 -9 12 -9 6 0 34 -18 62 -39 28 -22 62 -46
76 -53 14 -7 32 -19 40 -26 25 -20 182 -123 199 -130 9 -3 21 -10 26 -14 30
-24 145 -98 153 -98 13 0 76 -35 157 -88 11 -7 36 -19 55 -27 19 -9 42 -20 50
-25 8 -6 26 -16 40 -22 14 -7 31 -18 38 -25 7 -7 20 -13 29 -13 8 0 32 -9 52
-19 47 -26 213 -102 326 -151 71 -31 231 -90 242 -90 5 0 27 -9 49 -19 22 -11
71 -29 109 -41 39 -12 79 -25 90 -30 62 -25 227 -74 242 -71 7 1 23 -4 35 -11
13 -6 32 -13 43 -14 11 -2 54 -12 95 -23 41 -11 76 -18 79 -16 2 3 9 1 16 -5
6 -5 28 -11 48 -14 21 -2 53 -10 73 -16 19 -7 38 -9 41 -6 3 3 15 0 27 -6 11
-6 30 -12 41 -14 11 -1 38 -5 60 -9 69 -12 79 -14 115 -19 19 -3 46 -9 60 -12
14 -4 48 -7 75 -8 28 0 56 -5 63 -9 7 -5 45 -11 84 -13 39 -2 75 -7 80 -10 6
-4 51 -8 102 -10 50 -2 107 -7 126 -10 19 -4 54 -7 77 -7 23 0 40 -3 38 -7 -3
-4 6 -7 20 -6 14 0 25 5 25 9 0 5 6 5 12 1 18 -11 48 -12 48 -2 0 5 6 6 12 2
18 -11 48 -12 48 -2 0 5 6 6 12 2 18 -11 48 -12 48 -2 0 5 6 6 12 2 18 -11 48
-12 48 -2 0 5 6 6 12 2 18 -11 48 -12 48 -2 0 5 6 6 12 2 18 -11 48 -12 48 -2
0 5 6 6 12 2 18 -11 48 -12 48 -2 0 5 5 6 12 2 14 -9 78 -12 73 -4 -2 3 17 7
41 8 25 1 43 -2 40 -7 -3 -4 1 -8 9 -8 8 0 12 4 9 9 -8 12 10 10 24 -4 8 -8
12 -8 12 -1 0 6 20 11 48 10 27 0 54 3 59 6 6 4 52 9 103 11 51 3 115 9 144
15 28 5 67 9 86 10 62 1 70 2 70 10 0 4 19 7 43 7 23 -1 53 2 67 7 14 5 45 11
70 13 25 3 56 7 70 11 14 3 44 7 68 9 23 2 48 6 54 10 7 5 30 10 51 12 21 2
51 8 65 14 15 6 41 11 57 12 17 0 32 4 35 7 3 4 21 9 40 12 54 8 171 38 208
53 18 8 39 14 46 14 7 0 56 14 107 31 52 17 99 32 104 34 49 11 73 18 90 25
11 5 38 14 60 20 22 6 49 16 60 21 53 24 171 69 182 69 7 0 36 11 65 24 113
51 148 66 153 66 4 0 227 105 325 153 25 12 58 30 73 40 15 11 33 20 40 21 7
1 28 11 47 22 19 12 54 32 78 44 23 13 42 27 42 32 0 4 7 5 15 2 8 -4 15 -2
15 4 0 6 12 15 28 21 33 14 50 24 136 81 38 25 73 44 77 42 5 -1 9 2 9 6 0 5
17 17 38 28 20 10 45 27 54 37 9 10 19 17 21 15 3 -2 68 42 144 97 76 55 141
99 145 98 4 -2 15 8 25 20 10 12 36 36 58 52 22 16 47 38 56 47 9 10 19 18 23
18 8 0 44 29 77 63 15 15 30 27 33 27 4 0 17 10 30 23 13 12 34 31 48 42 14
11 52 44 84 73 33 29 76 69 97 88 21 19 35 34 32 34 -3 0 24 27 62 59 37 32
83 76 101 97 91 107 107 124 119 124 7 0 13 4 13 9 0 5 14 22 30 38 17 15 30
31 30 35 0 4 19 26 43 50 23 24 65 72 92 106 28 35 58 73 69 85 10 12 37 47
60 77 22 30 51 66 64 80 12 14 25 33 28 43 3 9 9 17 13 17 4 0 25 26 46 58 22
31 52 72 67 90 15 18 28 39 28 47 0 8 5 15 10 15 6 0 10 6 10 13 0 8 11 24 24
36 14 13 30 36 36 52 7 16 16 29 19 29 4 0 13 16 21 35 7 19 17 32 22 29 4 -3
8 2 8 10 0 23 2 28 28 53 12 12 22 28 22 35 0 7 9 19 20 26 11 7 17 18 14 27
-4 8 -1 15 5 15 6 0 11 6 11 14 0 7 7 19 15 26 8 7 15 21 15 31 0 11 3 19 8
19 4 0 28 39 52 87 25 49 47 90 50 93 10 10 50 96 50 108 0 6 4 12 9 12 7 0
54 94 55 112 1 3 4 9 8 13 8 9 51 98 69 145 7 19 18 38 23 42 6 4 11 15 12 25
1 17 19 65 48 128 8 17 25 59 37 95 12 36 32 88 44 115 13 28 26 66 30 85 4
19 11 41 16 50 10 20 21 51 25 70 3 17 23 87 32 110 3 8 6 18 7 23 2 4 4 9 5
12 3 6 4 11 14 50 4 17 12 41 17 55 5 14 11 40 13 57 2 18 9 40 16 48 7 8 9
15 6 15 -4 0 -2 9 4 19 5 11 13 36 16 56 3 21 8 47 11 59 3 11 6 30 7 41 2 11
6 30 10 42 4 12 9 32 12 45 2 13 7 37 11 53 3 17 7 42 7 58 1 15 5 27 9 27 5
0 5 4 2 10 -3 5 -1 18 4 29 9 16 15 51 24 144 1 9 5 17 9 17 4 0 5 10 3 22 -3
12 1 45 8 72 7 28 12 71 11 96 -1 25 3 54 9 65 5 10 12 55 14 100 2 44 6 94 9
110 3 17 6 84 8 150 4 160 16 287 28 303 7 8 7 12 0 12 -6 0 -10 13 -10 30 1
16 4 27 8 25 4 -2 7 2 7 10 0 8 -4 12 -8 10 -4 -3 -8 23 -8 57 -1 35 -4 81 -7
103 -3 22 -7 99 -8 170 -2 72 -6 148 -10 171 -4 22 -9 76 -11 120 -2 43 -8 90
-13 104 -5 14 -8 43 -8 65 1 22 -2 51 -7 65 -5 14 -11 52 -13 85 -3 33 -7 67
-10 75 -4 8 -8 35 -10 60 -2 25 -8 59 -13 75 -6 17 -12 46 -14 66 -3 20 -7 41
-10 46 -4 6 -8 31 -11 57 -2 26 -9 53 -15 60 -6 7 -8 16 -5 19 4 3 -1 25 -11
49 -9 24 -16 43 -15 43 8 0 -15 113 -25 125 -7 8 -11 26 -10 40 1 14 -2 31 -8
39 -6 7 -13 25 -15 39 -2 14 -7 33 -13 43 -5 10 -9 29 -9 43 0 14 -5 26 -11
26 -6 0 -9 9 -6 20 3 11 1 23 -4 26 -5 3 -7 9 -4 14 3 5 1 11 -5 15 -5 3 -10
17 -10 31 0 13 -5 24 -11 24 -6 0 -9 9 -6 19 3 11 -1 28 -8 38 -6 10 -15 32
-19 48 -4 17 -14 46 -23 65 -20 47 -29 69 -43 110 -7 19 -16 44 -20 55 -26 63
-39 105 -34 105 3 0 -3 12 -14 28 -11 15 -23 38 -27 52 -4 14 -26 63 -48 110
-23 47 -40 88 -39 93 1 4 -2 7 -8 7 -5 0 -10 6 -10 13 0 6 -10 32 -22 57 -11
25 -22 51 -24 59 -1 8 -7 17 -11 20 -5 3 -15 21 -22 39 -8 17 -17 32 -21 32
-4 0 -13 18 -20 40 -7 22 -16 40 -19 40 -3 0 -12 15 -20 33 -8 17 -21 40 -29
50 -8 9 -11 17 -7 17 5 0 0 7 -11 15 -10 8 -14 15 -9 15 7 0 7 3 0 8 -5 4 -19
25 -31 47 -28 55 -48 89 -55 95 -7 7 -54 84 -54 90 0 3 -13 24 -28 47 -15 24
-27 47 -27 53 0 5 -9 15 -20 22 -11 7 -20 17 -20 23 0 5 -20 35 -43 66 -23 32
-47 65 -54 75 -58 88 -88 130 -95 135 -5 3 -17 17 -26 31 -54 80 -73 106 -102
138 -18 19 -44 51 -59 71 -40 55 -110 135 -173 202 -32 33 -58 63 -58 66 0 4
-202 210 -252 256 -37 34 -230 218 -259 248 -15 15 -30 27 -34 27 -4 0 -20 12
-37 28 -17 15 -38 34 -47 42 -9 8 -35 28 -56 44 -22 16 -50 40 -62 53 -12 13
-24 24 -28 23 -3 -1 -26 15 -50 35 -24 21 -45 36 -47 34 -2 -2 -16 8 -30 24
-14 15 -28 27 -32 27 -3 0 -29 16 -56 35 -28 19 -72 51 -100 70 -27 19 -54 35
-59 35 -5 0 -11 4 -13 9 -1 4 -23 21 -47 37 -24 16 -54 36 -67 44 -65 43 -197
120 -205 120 -5 0 -9 3 -9 8 0 4 -13 13 -28 19 -15 7 -50 27 -77 45 -28 18
-52 32 -55 33 -3 0 -19 10 -37 23 -17 12 -35 22 -40 22 -15 0 -138 63 -141 72
-2 4 -14 8 -27 8 -13 0 -25 3 -27 8 -3 7 -173 92 -185 92 -2 0 -38 16 -79 35
-40 19 -79 35 -87 35 -7 0 -18 5 -24 11 -5 5 -54 25 -107 44 -54 19 -104 39
-112 46 -8 6 -14 9 -14 5 0 -6 -56 13 -117 40 -17 8 -35 14 -41 14 -5 0 -59
16 -118 36 -60 20 -116 36 -124 36 -8 1 -17 4 -20 8 -3 5 -18 10 -35 11 -16 2
-41 9 -54 16 -14 7 -28 10 -33 7 -4 -3 -16 -1 -25 5 -10 5 -31 11 -48 15 -29
5 -148 33 -157 37 -2 1 -14 2 -28 3 -14 2 -41 8 -60 14 -44 14 -84 22 -134 27
-22 2 -47 7 -55 10 -9 4 -34 9 -56 12 -21 2 -60 9 -85 14 -25 5 -65 11 -90 13
-25 2 -56 6 -70 9 -14 4 -54 9 -90 12 -36 2 -76 7 -90 11 -14 3 -63 7 -110 9
-128 6 -165 12 -162 26 2 9 -1 9 -10 2 -19 -15 -120 -15 -111 0 5 9 3 9 -8 1
-20 -16 -122 -17 -112 -1 5 9 3 9 -8 1 -20 -16 -122 -17 -112 -1 5 9 3 9 -8 1
-20 -16 -122 -17 -112 -1 5 9 3 9 -8 1 -18 -14 -122 -17 -113 -3 3 6 -3 5 -14
-2 -16 -10 -26 -10 -47 -1 -14 7 -24 8 -21 3 3 -5 -5 -8 -19 -8 -14 0 -22 3
-19 8 7 12 1 11 -11 0z"/>
<path d="M10777 663 c-10 -18 -6 -127 6 -141 8 -11 8 -14 0 -9 -15 9 -13 -54
2 -65 6 -5 6 -8 -1 -8 -8 0 -11 -31 -11 -95 0 -52 4 -95 9 -95 4 0 8 -5 8 -11
0 -5 -4 -8 -9 -4 -6 3 -9 -4 -8 -15 1 -23 8 -25 25 -8 9 9 12 9 12 0 0 -17 21
-15 35 5 9 13 14 13 20 3 5 -9 4 -11 -3 -6 -7 4 -12 2 -12 -3 0 -15 27 -14 33
2 4 9 6 9 6 0 1 -18 22 -16 36 4 9 13 14 13 20 3 5 -9 4 -11 -3 -6 -7 4 -12 2
-12 -3 0 -6 16 -11 36 -11 19 0 33 4 29 9 -3 5 0 13 6 17 7 4 9 3 5 -4 -3 -6
-2 -13 4 -17 5 -3 10 0 10 7 0 9 3 9 8 2 4 -6 26 -11 50 -10 34 0 42 3 37 15
-4 12 -2 12 9 -2 17 -21 25 -22 41 0 9 13 14 13 20 3 5 -9 4 -11 -3 -6 -7 4
-12 2 -12 -3 0 -15 27 -14 33 2 4 9 6 9 6 0 1 -18 22 -16 36 4 9 13 14 13 20
3 5 -9 4 -11 -3 -6 -7 4 -12 3 -12 -3 0 -5 20 -9 45 -8 36 1 45 4 40 17 -5 13
-4 13 7 -1 8 -9 29 -15 56 -15 38 0 42 2 37 20 -5 19 -4 18 6 -2 14 -26 27
-28 44 -5 9 13 14 13 20 3 5 -9 4 -11 -3 -6 -7 4 -12 2 -12 -3 0 -15 27 -14
33 2 4 9 6 9 6 0 1 -18 22 -16 36 4 9 13 14 13 20 3 5 -9 4 -11 -3 -6 -7 4
-12 2 -12 -3 0 -18 58 -12 70 6 11 17 11 17 6 0 -3 -9 -1 -17 4 -17 6 0 10 6
10 13 0 8 3 8 8 1 4 -5 26 -10 50 -10 38 0 42 2 37 20 -5 19 -4 18 6 -1 14
-27 27 -29 44 -6 9 13 14 13 20 3 5 -9 4 -11 -3 -6 -7 4 -12 2 -12 -3 0 -15
27 -14 33 2 4 9 6 9 6 0 1 -18 22 -16 36 4 9 13 14 13 20 3 5 -9 4 -11 -3 -6
-7 4 -12 2 -12 -3 0 -6 20 -11 45 -11 29 0 45 4 45 13 0 8 3 8 8 1 4 -5 26
-10 50 -10 38 0 42 2 37 20 -5 19 -4 18 6 -2 14 -26 27 -28 44 -5 9 13 14 13
20 3 5 -9 4 -11 -3 -6 -7 4 -12 2 -12 -3 0 -15 27 -14 33 1 4 10 6 10 6 1 1
-18 22 -16 36 4 9 13 14 13 20 3 5 -9 4 -11 -3 -6 -7 4 -12 3 -12 -2 0 -6 50
-9 120 -9 66 1 120 5 120 10 0 4 4 6 9 3 4 -3 29 8 55 24 38 24 46 34 41 50
-5 16 -3 19 12 13 16 -6 17 -5 3 12 -8 10 -10 16 -3 12 18 -11 26 11 28 70 1
51 -9 70 -21 38 -4 -8 -10 -12 -16 -9 -5 3 0 13 11 21 17 12 19 18 10 34 -19
37 -52 68 -63 62 -6 -3 -8 -3 -4 2 11 12 -11 35 -28 28 -8 -3 -14 -1 -14 4 0
5 -21 10 -47 12 -26 1 -51 5 -57 8 -5 4 -7 -1 -2 -12 5 -15 4 -16 -9 -5 -16
13 -135 17 -155 5 -5 -3 -10 0 -10 7 -1 7 -7 2 -16 -12 -11 -19 -14 -20 -10
-5 5 18 1 20 -49 18 -31 0 -62 -4 -70 -7 -8 -3 -15 0 -15 7 -1 7 -6 2 -13 -10
-9 -16 -16 -20 -27 -13 -13 8 -12 10 3 10 9 0 17 3 17 8 0 4 -11 7 -25 7 -18
0 -24 -4 -20 -14 4 -11 1 -11 -13 2 -14 13 -21 14 -30 5 -9 -9 -12 -9 -12 3 0
12 -2 12 -10 -1 -14 -21 -13 -53 2 -44 7 4 8 3 4 -5 -12 -20 -28 0 -23 28 5
22 2 27 -14 27 -10 0 -19 -6 -19 -13 0 -6 -4 -14 -9 -18 -6 -3 -8 3 -6 14 3
17 0 19 -21 11 -17 -7 -24 -6 -24 3 -1 6 -6 2 -13 -10 -9 -16 -16 -20 -27 -13
-13 8 -12 10 3 10 9 0 17 3 17 8 0 4 -11 7 -25 7 -17 0 -24 -4 -20 -14 5 -11
3 -12 -10 -1 -16 13 -135 17 -155 5 -5 -3 -10 0 -10 7 -1 7 -7 2 -16 -12 -11
-19 -14 -20 -10 -5 5 18 1 20 -49 18 -31 0 -62 -4 -70 -7 -8 -3 -15 0 -15 7
-1 7 -6 2 -13 -10 -9 -16 -16 -20 -27 -13 -13 8 -12 10 3 10 9 0 17 3 17 8 0
4 -11 7 -25 7 -18 0 -24 -4 -20 -14 4 -11 1 -11 -13 2 -14 13 -21 14 -30 5 -9
-9 -12 -9 -12 2 0 13 -2 13 -10 0 -14 -21 -13 -53 2 -44 7 4 8 3 4 -5 -12 -20
-28 0 -23 28 5 22 2 27 -14 27 -10 0 -19 -6 -19 -13 0 -6 -4 -14 -9 -18 -6 -3
-8 3 -6 14 3 17 0 19 -21 11 -17 -7 -24 -6 -24 3 -1 6 -7 1 -14 -12 l-13 -24
-11 31 c-6 17 -7 34 -4 38 4 4 1 4 -5 0 -7 -4 -13 -2 -13 3 0 6 5 11 11 11 5
0 7 4 4 10 -8 12 -45 -10 -45 -27 0 -7 -7 -13 -16 -13 -9 0 -12 -5 -8 -12 6
-10 4 -10 -7 -2 -8 6 -41 12 -73 13 -33 1 -65 5 -70 9 -6 3 -6 0 1 -9 9 -11 7
-14 -14 -16 -20 -1 -23 1 -12 9 11 8 10 9 -4 4 -19 -6 -32 3 -59 42 -9 13 -18
20 -21 15z m308 -62 c2 -11 0 -21 -4 -21 -5 0 -8 11 -8 25 0 30 6 28 12 -4z
m-275 1 c0 -5 -7 -9 -15 -9 -8 0 -12 4 -9 9 3 4 9 8 15 8 5 0 9 -4 9 -8z m158
-27 c-3 -3 -9 2 -12 12 -6 14 -5 15 5 6 7 -7 10 -15 7 -18z m58 3 c5 -7 3 -8
-6 -3 -9 5 -10 1 -6 -16 6 -20 5 -21 -4 -6 -6 9 -8 22 -5 27 8 13 12 13 21 -2z
m-239 -20 c-3 -8 -6 -5 -6 6 -1 11 2 17 5 13 3 -3 4 -12 1 -19z m49 7 c-11 -8
-25 -15 -30 -15 -6 1 0 7 14 15 32 19 40 18 16 0z m114 -13 c-6 -2 -7 -9 -4
-14 4 -6 2 -8 -4 -5 -5 4 -8 16 -5 28 4 16 8 17 14 7 5 -7 4 -14 -1 -16z
m1485 9 c-3 -6 -11 -11 -16 -11 -5 0 -4 6 3 14 14 16 24 13 13 -3z m-1385 -1
c0 -5 -5 -10 -11 -10 -5 0 -7 5 -4 10 3 6 8 10 11 10 2 0 4 -4 4 -10z m60 0
c0 -5 -4 -10 -10 -10 -5 0 -10 5 -10 10 0 6 5 10 10 10 6 0 10 -4 10 -10z m80
-15 c0 -2 -5 -7 -12 -11 -7 -5 -8 -3 -3 6 6 9 4 12 -7 8 -8 -4 -15 0 -15 7 0
10 5 11 19 4 10 -5 18 -12 18 -14z m120 17 c0 -5 -7 -9 -15 -9 -8 0 -12 4 -9
9 3 4 9 8 15 8 5 0 9 -4 9 -8z m383 -10 c-10 -10 -20 -17 -22 -16 -6 5 20 34
30 34 5 0 1 -8 -8 -18z m137 -7 c0 -2 -5 -7 -12 -11 -7 -5 -8 -3 -3 6 6 9 4
12 -7 8 -8 -4 -15 0 -15 7 0 10 5 11 19 4 10 -5 18 -12 18 -14z m120 17 c0 -5
-7 -9 -15 -9 -8 0 -12 4 -9 9 3 4 9 8 15 8 5 0 9 -4 9 -8z m414 -7 c11 -8 15
-15 9 -15 -7 0 -15 5 -18 10 -4 6 -11 8 -16 5 -5 -4 -9 -1 -9 4 0 15 11 13 34
-4z m131 5 c-3 -5 -12 -10 -18 -10 -7 0 -6 4 3 10 19 12 23 12 15 0z m-1602
-7 c-7 -2 -19 -2 -25 0 -7 3 -2 5 12 5 14 0 19 -2 13 -5z m131 -42 c-5 -6 -34
20 -34 30 0 5 8 1 18 -8 10 -10 17 -20 16 -22z m49 8 c-8 -8 -13 -7 -18 2 -6
8 -4 10 5 4 10 -6 12 -4 6 11 -6 15 -5 17 5 7 9 -10 10 -16 2 -24z m123 -1
c-9 -12 -16 -19 -16 -15 0 11 24 47 28 42 2 -2 -3 -14 -12 -27z m228 -7 c-5
-6 -34 20 -34 30 0 5 8 1 18 -8 10 -10 17 -20 16 -22z m160 0 c-5 -6 -34 20
-34 30 0 5 8 1 18 -8 10 -10 17 -20 16 -22z m129 8 c-8 -8 -13 -7 -18 2 -6 8
-4 10 5 4 10 -6 12 -4 6 11 -6 15 -5 17 5 7 9 -10 10 -16 2 -24z m123 -1 c-9
-12 -16 -19 -16 -15 0 11 24 47 28 42 2 -2 -3 -14 -12 -27z m228 -7 c-5 -6
-34 20 -34 30 0 5 8 1 18 -8 10 -10 17 -20 16 -22z m160 0 c-5 -6 -34 20 -34
30 0 5 8 1 18 -8 10 -10 17 -20 16 -22z m107 17 c11 -21 11 -22 -4 -9 -10 7
-17 17 -17 22 0 15 9 10 21 -13z m84 4 c-3 -3 -11 0 -18 7 -9 10 -8 11 6 5 10
-3 15 -9 12 -12z m46 -5 c-8 -8 -14 -7 -23 2 -11 10 -9 11 6 5 15 -6 17 -4 11
6 -6 9 -4 11 4 5 9 -5 10 -10 2 -18z m-1143 -7 c-7 -10 -14 -18 -15 -16 -6 6
9 36 18 36 5 0 4 -9 -3 -20z m137 2 c-3 -3 -11 0 -18 7 -9 10 -8 11 6 5 10 -3
15 -9 12 -12z m160 0 c-3 -3 -11 0 -18 7 -9 10 -8 11 6 5 10 -3 15 -9 12 -12z
m343 -2 c-7 -10 -14 -18 -15 -16 -6 6 9 36 18 36 5 0 4 -9 -3 -20z m137 2 c-3
-3 -11 0 -18 7 -9 10 -8 11 6 5 10 -3 15 -9 12 -12z m160 0 c-3 -3 -11 0 -18
7 -9 10 -8 11 6 5 10 -3 15 -9 12 -12z m237 -5 c-7 -8 -9 -17 -5 -20 3 -4 1
-7 -5 -7 -7 0 -12 2 -12 5 0 10 24 44 29 40 2 -3 -1 -11 -7 -18z m-1638 5 c2
-4 -4 -8 -14 -8 -10 0 -16 4 -14 8 3 4 9 8 14 8 5 0 11 -4 14 -8z m85 -1 c10
-7 7 -9 -12 -8 -14 1 -23 5 -20 10 6 9 15 9 32 -2z m31 -11 c-6 -11 -15 -20
-20 -20 -6 0 -2 9 7 20 10 11 19 20 21 20 1 0 -2 -9 -8 -20z m190 5 c19 -22 8
-25 -12 -3 -10 10 -14 18 -9 18 5 0 14 -7 21 -15z m96 -12 c-6 -6 -36 9 -36
18 0 5 9 4 20 -3 10 -7 18 -14 16 -15z m34 -8 c0 -5 -5 -3 -10 5 -5 8 -10 20
-10 25 0 6 5 3 10 -5 5 -8 10 -19 10 -25z m83 18 c-5 -12 -3 -14 7 -8 9 6 11
4 5 -4 -5 -9 -10 -10 -18 -2 -14 14 -30 14 -22 1 3 -5 4 -10 1 -10 -3 0 -8 5
-11 10 -5 8 14 21 42 29 1 1 -1 -6 -4 -16z m133 5 c5 -7 3 -8 -6 -3 -10 6 -12
4 -6 -11 5 -14 4 -16 -5 -7 -6 6 -8 16 -5 22 9 14 13 14 22 -1z m27 -5 c-5
-12 -3 -14 7 -8 9 6 11 4 5 -4 -5 -9 -11 -9 -17 -3 -6 6 -7 15 -4 21 11 17 16
13 9 -6z m133 5 c5 -7 3 -8 -6 -3 -10 6 -12 4 -6 -11 5 -14 4 -16 -5 -7 -6 6
-8 16 -5 22 9 14 13 14 22 -1z m134 -3 c19 -22 8 -25 -12 -3 -10 10 -14 18 -9
18 5 0 14 -7 21 -15z m96 -12 c-6 -6 -36 9 -36 18 0 5 9 4 20 -3 10 -7 18 -14
16 -15z m34 -8 c0 -5 -5 -3 -10 5 -5 8 -10 20 -10 25 0 6 5 3 10 -5 5 -8 10
-19 10 -25z m83 18 c-5 -12 -3 -14 7 -8 9 6 11 4 5 -4 -5 -9 -10 -10 -18 -2
-14 14 -30 14 -22 1 3 -5 4 -10 1 -10 -3 0 -8 5 -11 10 -5 8 14 21 42 29 1 1
-1 -6 -4 -16z m133 5 c5 -7 3 -8 -6 -3 -10 6 -12 4 -6 -11 5 -14 4 -16 -5 -7
-6 6 -8 16 -5 22 9 14 13 14 22 -1z m27 -5 c-5 -12 -3 -14 7 -8 9 6 11 4 5 -4
-5 -9 -11 -9 -17 -3 -6 6 -7 15 -4 21 11 17 16 13 9 -6z m133 5 c5 -7 3 -8 -6
-3 -10 6 -12 4 -6 -11 5 -14 4 -16 -5 -7 -6 6 -8 16 -5 22 9 14 13 14 22 -1z
m67 -6 c-10 -10 -20 -17 -22 -16 -6 5 20 34 30 34 5 0 1 -8 -8 -18z m162 8 c3
-6 -1 -7 -9 -4 -18 7 -21 14 -7 14 6 0 13 -4 16 -10z m-1405 -10 c8 -5 11 -10
5 -10 -5 0 -17 5 -25 10 -8 5 -10 10 -5 10 6 0 17 -5 25 -10z m640 0 c8 -5 11
-10 5 -10 -5 0 -17 5 -25 10 -8 5 -10 10 -5 10 6 0 17 -5 25 -10z m-720 -10
c0 -5 -5 -10 -11 -10 -5 0 -7 5 -4 10 3 6 8 10 11 10 2 0 4 -4 4 -10z m631
-13 c-10 -9 -11 -8 -5 6 3 10 9 15 12 12 3 -3 0 -11 -7 -18z m-864 7 c-3 -3
-12 -4 -19 -1 -8 3 -5 6 6 6 11 1 17 -2 13 -5z m76 -1 c-7 -2 -19 -2 -25 0 -7
3 -2 5 12 5 14 0 19 -2 13 -5z m33 -10 c-2 -9 -9 -19 -17 -21 -11 -3 -11 -1 1
7 8 6 11 11 7 11 -5 0 -5 5 -2 10 9 15 14 12 11 -7z m86 10 c-6 -2 -10 -9 -7
-13 3 -5 1 -11 -4 -14 -7 -5 -8 11 -2 32 1 1 7 2 14 1 9 0 9 -2 -1 -6z m69 -7
c5 3 9 0 9 -6 0 -15 -23 -7 -26 8 -1 7 0 8 3 2 2 -5 9 -8 14 -4z m323 -1 c-10
-8 -23 -15 -28 -15 -6 0 -1 7 10 15 10 8 23 15 28 15 6 0 1 -7 -10 -15z m168
6 c-8 -4 -13 -12 -12 -17 1 -5 -4 -10 -12 -12 -9 -2 -8 0 2 7 8 6 11 11 7 11
-5 0 -5 5 -2 10 3 6 12 10 18 10 8 0 8 -3 -1 -9z m149 -5 c5 3 9 0 9 -6 0 -15
-23 -7 -26 8 -1 7 0 8 3 2 2 -5 9 -8 14 -4z m323 -1 c-10 -8 -23 -15 -28 -15
-6 0 -1 7 10 15 10 8 23 15 28 15 6 0 1 -7 -10 -15z m160 0 c-10 -8 -23 -15
-28 -15 -6 0 -1 7 10 15 10 8 23 15 28 15 6 0 1 -7 -10 -15z m192 -5 c5 1 10
-4 12 -12 3 -11 2 -11 -6 0 -5 8 -13 13 -18 12 -5 -1 -10 4 -12 12 -3 11 -2
11 6 0 5 -8 13 -13 18 -12z m60 0 c5 1 10 -4 12 -12 3 -11 2 -11 -6 0 -5 8
-13 13 -18 12 -5 -1 -10 4 -12 12 -3 11 -2 11 6 0 5 -8 13 -13 18 -12z m69 10
c-3 -5 -12 -10 -18 -10 -7 0 -6 4 3 10 19 12 23 12 15 0z m-1679 -9 c-4 -5 -1
-12 4 -14 6 -3 5 -4 -2 -3 -15 3 -23 26 -8 26 6 0 9 -4 6 -9z m310 -3 c3 -4
-1 -5 -10 -4 -8 1 -18 5 -22 8 -3 4 1 5 10 4 8 -1 18 -5 22 -8z m60 0 c3 -4
-1 -5 -10 -4 -8 1 -18 5 -22 8 -3 4 1 5 10 4 8 -1 18 -5 22 -8z m60 0 c3 -4
-1 -5 -10 -4 -8 1 -18 5 -22 8 -3 4 1 5 10 4 8 -1 18 -5 22 -8z m60 -7 c1 -6
0 -7 -3 -1 -2 5 -9 8 -13 5 -5 -3 -11 -1 -14 4 -4 5 2 8 11 7 9 -2 18 -8 19
-15z m134 9 c0 -5 -4 -10 -10 -10 -5 0 -10 5 -10 10 0 6 5 10 10 10 6 0 10 -4
10 -10z m54 -6 c3 -8 2 -12 -4 -9 -6 3 -10 10 -10 16 0 14 7 11 14 -7z m272 4
c3 -4 -1 -5 -10 -4 -8 1 -18 5 -22 8 -3 4 1 5 10 4 8 -1 18 -5 22 -8z m60 0
c3 -4 -1 -5 -10 -4 -8 1 -18 5 -22 8 -3 4 1 5 10 4 8 -1 18 -5 22 -8z m60 0
c3 -4 -1 -5 -10 -4 -8 1 -18 5 -22 8 -3 4 1 5 10 4 8 -1 18 -5 22 -8z m60 -7
c1 -6 0 -7 -3 -1 -2 5 -9 8 -13 5 -5 -3 -11 -1 -14 4 -4 5 2 8 11 7 9 -2 18
-8 19 -15z m134 9 c0 -5 -4 -10 -10 -10 -5 0 -10 5 -10 10 0 6 5 10 10 10 6 0
10 -4 10 -10z m160 0 c0 -5 -4 -10 -10 -10 -5 0 -10 5 -10 10 0 6 5 10 10 10
6 0 10 -4 10 -10z m80 -15 c0 -2 -5 -7 -12 -11 -7 -4 -8 -3 -4 4 4 7 1 12 -8
12 -9 0 -16 5 -16 10 0 7 6 7 20 0 11 -6 20 -13 20 -15z m-1540 -15 c6 -11 8
-20 6 -20 -3 0 -10 9 -16 20 -6 11 -8 20 -6 20 3 0 10 -9 16 -20z m153 0 c-10
-11 -19 -20 -21 -20 -1 0 2 9 8 20 6 11 15 20 20 20 6 0 2 -9 -7 -20z m102 -1
c-4 -5 -14 -8 -23 -8 -15 1 -15 2 1 6 9 2 14 9 11 15 -4 7 -2 8 5 4 6 -4 9
-12 6 -17z m199 -18 c-5 -6 -34 20 -34 30 0 5 8 1 18 -8 10 -10 17 -20 16 -22z
m101 29 c3 -5 1 -10 -4 -10 -6 0 -11 5 -11 10 0 6 2 10 4 10 3 0 8 -4 11 -10z
m61 -2 c5 -7 3 -8 -6 -3 -9 5 -10 1 -6 -16 6 -20 5 -21 -4 -6 -6 9 -8 22 -5
27 8 13 12 13 21 -2z m177 -8 c-10 -11 -19 -20 -21 -20 -1 0 2 9 8 20 6 11 15
20 20 20 6 0 2 -9 -7 -20z m102 -1 c-4 -5 -14 -8 -23 -8 -15 1 -15 2 1 6 9 2
14 9 11 15 -4 7 -2 8 5 4 6 -4 9 -12 6 -17z m199 -18 c-5 -6 -34 20 -34 30 0
5 8 1 18 -8 10 -10 17 -20 16 -22z m101 29 c3 -5 1 -10 -4 -10 -6 0 -11 5 -11
10 0 6 2 10 4 10 3 0 8 -4 11 -10z m61 -2 c5 -7 3 -8 -6 -3 -9 5 -10 1 -6 -16
6 -20 5 -21 -4 -6 -6 9 -8 22 -5 27 8 13 12 13 21 -2z m438 1 c-4 -8 1 -9 17
-4 23 7 23 7 4 -8 -14 -11 -22 -12 -27 -4 -7 11 -2 27 8 27 3 0 2 -5 -2 -11z
m-1410 -23 c-3 -9 -10 -16 -15 -16 -5 0 -4 9 3 20 14 22 21 20 12 -4z m76 14
c8 -5 12 -11 10 -14 -3 -2 -14 2 -24 10 -22 15 -10 19 14 4z m36 -22 c-9 -12
-16 -19 -16 -15 0 11 24 47 28 42 2 -2 -3 -14 -12 -27z m84 22 c8 -5 11 -10 5
-10 -5 0 -17 5 -25 10 -8 5 -10 10 -5 10 6 0 17 -5 25 -10z m204 -6 c9 -24 2
-26 -12 -4 -7 11 -8 20 -3 20 5 0 12 -7 15 -16z m240 -8 c-3 -9 -10 -16 -15
-16 -5 0 -4 9 3 20 14 22 21 20 12 -4z m76 14 c8 -5 12 -11 10 -14 -3 -2 -14
2 -24 10 -22 15 -10 19 14 4z m36 -22 c-9 -12 -16 -19 -16 -15 0 11 24 47 28
42 2 -2 -3 -14 -12 -27z m84 22 c8 -5 11 -10 5 -10 -5 0 -17 5 -25 10 -8 5
-10 10 -5 10 6 0 17 -5 25 -10z m204 -6 c9 -24 2 -26 -12 -4 -7 11 -8 20 -3
20 5 0 12 -7 15 -16z m160 0 c9 -24 2 -26 -12 -4 -7 11 -8 20 -3 20 5 0 12 -7
15 -16z m153 -11 c1 -22 -1 -24 -8 -10 -6 9 -7 22 -4 27 9 14 10 13 12 -17z
m-1577 11 c0 -8 -19 -13 -24 -6 -3 5 1 9 9 9 8 0 15 -2 15 -3z m50 -9 c19 -22
8 -25 -12 -3 -10 10 -14 18 -9 18 5 0 14 -7 21 -15z m90 1 c-4 -4 -16 -4 -26
2 -16 9 -14 10 8 9 15 -1 23 -6 18 -11z m120 4 c0 -5 -2 -10 -4 -10 -3 0 -8 5
-11 10 -3 6 -1 10 4 10 6 0 11 -4 11 -10z m214 2 c3 -5 -1 -9 -9 -9 -8 0 -12
4 -9 9 3 4 7 8 9 8 2 0 6 -4 9 -8z m216 -7 c19 -22 8 -25 -12 -3 -10 10 -14
18 -9 18 5 0 14 -7 21 -15z m90 1 c-4 -4 -16 -4 -26 2 -16 9 -14 10 8 9 15 -1
23 -6 18 -11z m120 4 c0 -5 -2 -10 -4 -10 -3 0 -8 5 -11 10 -3 6 -1 10 4 10 6
0 11 -4 11 -10z m214 2 c3 -5 -1 -9 -9 -9 -8 0 -12 4 -9 9 3 4 7 8 9 8 2 0 6
-4 9 -8z m246 2 c0 -8 -19 -13 -24 -6 -3 5 1 9 9 9 8 0 15 -2 15 -3z m143 -1
c3 -5 -6 -9 -20 -10 -19 -1 -22 1 -12 8 17 11 26 11 32 2z m-908 -13 c4 -6 -1
-7 -11 -3 -12 4 -15 3 -10 -5 4 -7 2 -12 -3 -12 -12 0 -14 13 -4 23 9 10 21 9
28 -3z m61 -16 c1 -9 0 -13 -4 -10 -3 4 -7 14 -8 22 -1 9 0 13 4 10 3 -4 7
-14 8 -22z m579 16 c4 -6 -1 -7 -11 -3 -12 4 -15 3 -10 -5 4 -7 2 -12 -3 -12
-12 0 -14 13 -4 23 9 10 21 9 28 -3z m72 4 c-3 -3 -12 -4 -19 -1 -8 3 -5 6 6
6 11 1 17 -2 13 -5z m88 -3 c3 -5 0 -13 -6 -17 -8 -4 -9 -3 -5 4 4 7 2 12 -3
12 -6 0 -11 -5 -11 -12 0 -6 -3 -9 -6 -5 -7 7 4 27 16 27 5 0 11 -4 15 -9z
m-1282 -32 c-4 -16 -8 -17 -14 -7 -5 7 -4 14 1 16 6 2 7 9 4 14 -4 6 -2 8 4 5
5 -4 8 -16 5 -28z m173 2 c-4 -6 -13 -11 -19 -10 -9 0 -9 2 1 6 6 2 12 9 12
14 0 6 -5 7 -12 3 -7 -5 -8 -3 -3 5 5 9 11 9 17 3 6 -6 7 -15 4 -21z m70 20
c-4 -5 -2 -11 3 -13 5 -1 3 -9 -5 -16 -12 -11 -13 -9 -10 10 6 30 5 28 12 28
3 0 3 -4 0 -9z m397 -22 c-4 -16 -8 -17 -14 -7 -5 7 -4 14 1 16 6 2 7 9 4 14
-4 6 -2 8 4 5 5 -4 8 -16 5 -28z m173 2 c-4 -6 -13 -11 -19 -10 -9 0 -9 2 1 6
6 2 12 9 12 14 0 6 -5 7 -12 3 -7 -5 -8 -3 -3 5 5 9 11 9 17 3 6 -6 7 -15 4
-21z m70 20 c-4 -5 -2 -11 3 -13 5 -1 3 -9 -5 -16 -12 -11 -13 -9 -10 10 6 30
5 28 12 28 3 0 3 -4 0 -9z m560 -3 c4 -7 3 -8 -4 -4 -7 4 -12 3 -12 -3 0 -6
-8 -7 -17 -4 -17 7 -15 8 24 22 1 1 5 -4 9 -11z m120 0 c4 -7 3 -8 -4 -4 -7 4
-12 3 -12 -3 0 -5 6 -12 13 -14 9 -4 9 -6 0 -6 -15 -1 -26 16 -18 29 8 13 12
13 21 -2z m-1695 -25 c-12 -20 -14 -14 -5 12 4 9 9 14 11 11 3 -2 0 -13 -6
-23z m69 -8 c0 -5 -5 -3 -10 5 -5 8 -10 20 -10 25 0 6 5 3 10 -5 5 -8 10 -19
10 -25z m411 26 c-8 -5 -10 -14 -6 -22 6 -11 5 -11 -5 -2 -14 12 -6 33 13 33
8 0 7 -3 -2 -9z m229 -26 c0 -5 -5 -3 -10 5 -5 8 -10 20 -10 25 0 6 5 3 10 -5
5 -8 10 -19 10 -25z m411 26 c-8 -5 -10 -14 -6 -22 6 -11 5 -11 -5 -2 -14 12
-6 33 13 33 8 0 7 -3 -2 -9z m253 -7 c3 -8 2 -12 -4 -9 -6 3 -10 10 -10 16 0
14 7 11 14 -7z m113 10 c-3 -3 -12 -4 -19 -1 -8 3 -5 6 6 6 11 1 17 -2 13 -5z
m47 -23 c-2 -3 -12 3 -22 13 -16 17 -16 18 5 5 12 -7 20 -15 17 -18z m83 9
c-2 -11 -7 -23 -12 -27 -4 -5 -4 -2 0 6 6 11 4 13 -11 7 -18 -7 -18 -6 1 13
25 25 25 25 22 1z m-1673 -5 c-4 -8 -8 -15 -10 -15 -2 0 -4 7 -4 15 0 8 4 15
10 15 5 0 7 -7 4 -15z m258 -9 c4 3 9 0 14 -7 5 -8 3 -10 -6 -4 -10 6 -12 4
-7 -8 11 -30 -2 -18 -18 16 -11 23 -12 27 -2 15 8 -10 16 -15 19 -12z m32 9
c11 -8 16 -15 10 -15 -5 0 -18 7 -28 15 -11 8 -16 15 -10 15 5 0 18 -7 28 -15z
m281 -6 c-4 -5 -1 -9 6 -9 7 0 10 -3 6 -6 -3 -3 -14 -1 -24 5 -11 6 -13 11 -5
11 7 0 10 5 6 12 -4 7 -3 8 5 4 6 -4 9 -12 6 -17z m135 11 c8 -5 11 -10 5 -10
-5 0 -17 5 -25 10 -8 5 -10 10 -5 10 6 0 17 -5 25 -10z m192 -14 c4 3 9 0 14
-7 5 -8 3 -10 -6 -4 -10 6 -12 4 -7 -8 11 -30 -2 -18 -18 16 -11 23 -12 27 -2
15 8 -10 16 -15 19 -12z m32 9 c11 -8 16 -15 10 -15 -5 0 -18 7 -28 15 -11 8
-16 15 -10 15 5 0 18 -7 28 -15z m281 -6 c-4 -5 -1 -9 6 -9 7 0 10 -3 6 -6 -3
-3 -14 -1 -24 5 -11 6 -13 11 -5 11 7 0 10 5 6 12 -4 7 -3 8 5 4 6 -4 9 -12 6
-17z m135 11 c8 -5 11 -10 5 -10 -5 0 -17 5 -25 10 -8 5 -10 10 -5 10 6 0 17
-5 25 -10z m166 -2 c3 -4 -1 -5 -10 -4 -8 1 -18 5 -22 8 -3 4 1 5 10 4 8 -1
18 -5 22 -8z m-1015 -13 c5 4 6 -2 2 -11 -4 -11 -8 -13 -11 -6 -2 7 -8 10 -12
7 -5 -3 -12 0 -16 6 -4 8 -3 9 4 5 7 -4 12 -1 13 6 0 10 2 10 6 0 2 -6 9 -10
14 -7z m640 0 c5 4 6 -2 2 -11 -4 -11 -8 -13 -11 -6 -2 7 -8 10 -12 7 -5 -3
-12 0 -16 6 -4 8 -3 9 4 5 7 -4 12 -1 13 6 0 10 2 10 6 0 2 -6 9 -10 14 -7z
m-1135 -23 c-17 -16 -18 -16 -5 5 7 12 15 20 18 17 3 -2 -3 -12 -13 -22z m174
3 c14 -19 14 -19 -2 -6 -10 7 -18 18 -18 24 0 6 1 8 3 6 1 -2 9 -13 17 -24z
m165 7 c-3 -3 -11 0 -18 7 -9 10 -8 11 6 5 10 -3 15 -9 12 -12z m29 6 c-5 -8
-1 -9 12 -4 14 5 16 4 7 -5 -13 -13 -37 -3 -28 12 4 5 8 9 11 9 3 0 2 -5 -2
-12z m80 -28 c-5 -5 -10 3 -11 18 -1 22 0 24 9 8 6 -10 6 -22 2 -26z m220 29
c-4 -8 1 -9 17 -4 23 7 23 7 4 -8 -14 -11 -22 -12 -27 -4 -7 11 -2 27 8 27 3
0 2 -5 -2 -11z m146 -14 c14 -19 14 -19 -2 -6 -10 7 -18 18 -18 24 0 6 1 8 3
6 1 -2 9 -13 17 -24z m165 7 c-3 -3 -11 0 -18 7 -9 10 -8 11 6 5 10 -3 15 -9
12 -12z m29 6 c-5 -8 -1 -9 12 -4 14 5 16 4 7 -5 -13 -13 -37 -3 -28 12 4 5 8
9 11 9 3 0 2 -5 -2 -12z m80 -28 c-5 -5 -10 3 -11 18 -1 22 0 24 9 8 6 -10 6
-22 2 -26z m220 29 c-4 -8 1 -9 17 -4 23 7 23 7 4 -8 -14 -11 -22 -12 -27 -4
-7 11 -2 27 8 27 3 0 2 -5 -2 -11z m96 -14 c-7 -8 -16 -15 -21 -15 -5 0 -1 8
9 18 20 22 31 19 12 -3z m151 -7 c-10 -11 -11 -9 -5 6 6 15 4 17 -6 11 -9 -6
-11 -4 -5 4 5 9 10 10 18 2 8 -8 7 -14 -2 -23z m174 23 c3 -5 2 -12 -3 -15 -5
-3 -9 1 -9 9 0 17 3 19 12 6z m47 2 c-6 -2 -10 -9 -7 -13 3 -5 0 -12 -6 -16
-8 -4 -9 -3 -5 4 4 7 1 12 -6 12 -9 0 -9 3 2 10 8 5 20 9 25 9 6 0 4 -3 -3 -6z
m-1570 -39 c-9 -16 -10 -14 -9 8 1 15 6 23 11 18 4 -4 4 -16 -2 -26z m448 -6
c0 -5 -5 -8 -11 -8 -5 0 -8 4 -4 9 3 5 1 12 -5 16 -5 3 -10 11 -10 18 0 12 29
-23 30 -35z m75 22 c-3 -4 0 -11 5 -13 6 -3 5 -4 -1 -3 -7 1 -13 10 -15 19 -1
9 2 15 7 11 5 -3 7 -9 4 -14z m117 -16 c-9 -16 -10 -14 -9 8 1 15 6 23 11 18
4 -4 4 -16 -2 -26z m448 -6 c0 -5 -5 -8 -11 -8 -5 0 -8 4 -4 9 3 5 1 12 -5 16
-5 3 -10 11 -10 18 0 12 29 -23 30 -35z m87 36 c-3 -3 -12 -4 -19 -1 -8 3 -5
6 6 6 11 1 17 -2 13 -5z m73 -38 c0 -6 -7 -1 -15 10 -8 10 -15 23 -15 28 0 6
7 1 15 -10 8 -10 15 -23 15 -28z m34 30 c-10 -8 -21 -12 -24 -10 -5 6 21 24
34 24 6 0 1 -6 -10 -14z m214 3 c-2 -6 -7 -10 -12 -9 -5 1 -13 -4 -18 -12 -8
-10 -9 -10 -5 2 2 8 10 14 16 13 6 -2 11 2 11 7 0 6 3 10 6 10 3 0 4 -5 2 -11z
m-1405 -17 c-10 -10 -20 -17 -22 -16 -6 5 20 34 30 34 5 0 1 -8 -8 -18z m115
-2 c-7 -10 -14 -17 -17 -15 -4 4 18 35 25 35 2 0 -1 -9 -8 -20z m125 2 c-10
-10 -20 -17 -22 -16 -6 5 20 34 30 34 5 0 1 -8 -8 -18z m67 8 c-8 -5 -19 -10
-25 -10 -5 0 -3 5 5 10 8 5 20 10 25 10 6 0 3 -5 -5 -10z m333 -8 c-10 -10
-20 -17 -22 -16 -6 5 20 34 30 34 5 0 1 -8 -8 -18z m115 -2 c-7 -10 -14 -17
-17 -15 -4 4 18 35 25 35 2 0 -1 -9 -8 -20z m125 2 c-10 -10 -20 -17 -22 -16
-6 5 20 34 30 34 5 0 1 -8 -8 -18z m67 8 c-8 -5 -19 -10 -25 -10 -5 0 -3 5 5
10 8 5 20 10 25 10 6 0 3 -5 -5 -10z m290 -25 c0 -5 -5 -3 -10 5 -5 8 -10 20
-10 25 0 6 5 3 10 -5 5 -8 10 -19 10 -25z m110 20 c19 -22 8 -25 -12 -3 -10
10 -14 18 -9 18 5 0 14 -7 21 -15z m-1590 -6 c12 -8 10 -9 -9 -4 -17 5 -22 4
-16 -5 5 -9 4 -11 -4 -6 -6 4 -9 12 -6 17 8 12 16 11 35 -2z m95 2 c3 -5 0
-13 -6 -17 -8 -5 -9 -3 -4 6 6 10 4 12 -9 7 -10 -4 -15 -3 -11 3 8 13 22 13
30 1z m640 0 c3 -5 0 -13 -6 -17 -8 -5 -9 -3 -4 6 6 10 4 12 -9 7 -10 -4 -15
-3 -11 3 8 13 22 13 30 1z m825 -1 c8 -5 11 -10 5 -10 -5 0 -17 5 -25 10 -8 5
-10 10 -5 10 6 0 17 -5 25 -10z m-1513 -6 c-3 -3 -12 -4 -19 -1 -8 3 -5 6 6 6
11 1 17 -2 13 -5z m142 -22 c-1 -15 -2 -15 -6 1 -2 9 -9 14 -15 11 -7 -4 -8
-2 -4 5 10 15 26 4 25 -17z m306 18 c-3 -5 -1 -10 6 -10 7 0 10 -3 6 -6 -9 -9
-28 6 -22 17 4 5 8 9 11 9 3 0 2 -4 -1 -10z m161 -2 c5 -7 3 -8 -6 -3 -9 5
-10 1 -6 -16 6 -20 5 -21 -4 -6 -6 9 -8 22 -5 27 8 13 12 13 21 -2z m173 -16
c-1 -15 -2 -15 -6 1 -2 9 -9 14 -15 11 -7 -4 -8 -2 -4 5 10 15 26 4 25 -17z
m306 18 c-3 -5 -1 -10 4 -10 6 0 11 -5 11 -11 0 -8 -5 -8 -15 1 -13 11 -12 30
1 30 3 0 2 -4 -1 -10z m161 -2 c5 -7 3 -8 -6 -3 -9 5 -10 1 -6 -16 6 -20 5
-21 -4 -6 -6 9 -8 22 -5 27 8 13 12 13 21 -2z m80 -6 c-3 -3 2 -11 12 -19 15
-11 13 -12 -12 -1 -15 7 -23 14 -17 16 6 2 8 9 5 14 -5 7 -2 8 5 4 7 -5 10
-10 7 -14z m80 6 c4 -7 3 -8 -4 -4 -7 4 -12 0 -12 -10 0 -10 -3 -15 -6 -11 -7
6 2 37 10 37 3 0 8 -5 12 -12z m-1519 -20 c-3 -8 -6 -5 -6 6 -1 11 2 17 5 13
3 -3 4 -12 1 -19z m190 0 c-3 -8 -6 -5 -6 6 -1 11 2 17 5 13 3 -3 4 -12 1 -19z
m443 0 c0 -6 -6 -5 -15 2 -8 7 -15 14 -15 16 0 2 7 1 15 -2 8 -4 15 -11 15
-16z m197 0 c-3 -8 -6 -5 -6 6 -1 11 2 17 5 13 3 -3 4 -12 1 -19z m120 0 c-3
-8 -6 -5 -6 6 -1 11 2 17 5 13 3 -3 4 -12 1 -19z m323 0 c0 -6 -6 -5 -15 2 -8
7 -15 14 -15 16 0 2 7 1 15 -2 8 -4 15 -11 15 -16z m281 -1 c-10 -9 -11 -8 -5
6 3 10 9 15 12 12 3 -3 0 -11 -7 -18z m183 8 c-4 -8 -11 -12 -16 -9 -6 4 -5
10 3 15 19 12 19 11 13 -6z m-1664 -5 c-8 -5 -19 -10 -25 -10 -5 0 -3 5 5 10
8 5 20 10 25 10 6 0 3 -5 -5 -10z m60 0 c8 -5 11 -10 5 -10 -5 0 -17 5 -25 10
-8 5 -10 10 -5 10 6 0 17 -5 25 -10z m192 -22 c-6 -6 -12 -6 -17 3 -5 8 -4 10
3 5 7 -4 12 0 13 11 0 12 2 13 6 5 3 -8 1 -18 -5 -24z m65 10 c-3 -8 -6 -5 -6
6 -1 11 2 17 5 13 3 -3 4 -12 1 -19z m383 12 c8 -5 11 -10 5 -10 -5 0 -17 5
-25 10 -8 5 -10 10 -5 10 6 0 17 -5 25 -10z m257 -12 c-3 -8 -6 -5 -6 6 -1 11
2 17 5 13 3 -3 4 -12 1 -19z m646 7 c-3 -9 -8 -14 -10 -11 -3 3 -2 9 2 15 9
16 15 13 8 -4z m-1150 -16 c-8 -8 -13 -7 -18 2 -5 8 -4 10 3 5 7 -4 12 -2 12
5 0 7 3 9 7 6 4 -4 2 -12 -4 -18z m872 12 c3 -5 0 -13 -6 -17 -8 -4 -9 -3 -5
4 4 7 2 12 -3 12 -6 0 -11 -5 -11 -12 0 -6 -3 -9 -6 -5 -7 7 4 27 16 27 5 0
11 -4 15 -9z m-1378 -16 c0 -8 -4 -12 -9 -9 -5 3 -6 10 -3 15 9 13 12 11 12
-6z m98 -6 c-4 -5 -14 -8 -23 -8 -15 1 -15 2 1 6 9 2 14 9 11 15 -4 7 -2 8 5
4 6 -4 9 -12 6 -17z m61 -5 c1 -9 0 -13 -4 -10 -3 4 -7 14 -8 22 -1 9 0 13 4
10 3 -4 7 -14 8 -22z m118 -14 c-5 -5 -10 3 -11 18 -1 22 0 24 9 8 6 -10 6
-22 2 -26z m100 1 c-5 -6 -34 20 -34 30 0 5 8 1 18 -8 10 -10 17 -20 16 -22z
m100 23 c3 -8 2 -12 -4 -9 -6 3 -10 10 -10 16 0 14 7 11 14 -7z m140 -23 c-5
-6 -34 20 -34 30 0 5 8 1 18 -8 10 -10 17 -20 16 -22z m107 19 c6 0 7 5 3 12
-5 7 -3 8 5 3 9 -5 9 -11 3 -17 -12 -12 -32 -2 -31 15 0 9 2 9 6 0 2 -7 9 -13
14 -13z m75 -6 c1 -9 0 -13 -4 -10 -3 4 -7 14 -8 22 -1 9 0 13 4 10 3 -4 7
-14 8 -22z m138 -13 c-5 -6 -34 20 -34 30 0 5 8 1 18 -8 10 -10 17 -20 16 -22z
m107 19 c6 0 7 5 3 12 -5 7 -3 8 5 3 9 -5 9 -11 3 -17 -12 -12 -32 -2 -31 15
0 9 2 9 6 0 2 -7 9 -13 14 -13z m79 -15 c0 -5 -5 -3 -10 5 -5 8 -10 20 -10 25
0 6 5 3 10 -5 5 -8 10 -19 10 -25z m134 -4 c-5 -6 -34 20 -34 30 0 5 8 1 18
-8 10 -10 17 -20 16 -22z m320 0 c-5 -6 -34 20 -34 30 0 5 8 1 18 -8 10 -10
17 -20 16 -22z m107 19 c6 0 7 5 3 12 -5 7 -3 8 5 3 9 -5 9 -11 3 -17 -12 -12
-32 -2 -31 15 0 9 2 9 6 0 2 -7 9 -13 14 -13z m-1647 -30 c-6 -5 -24 21 -24
34 0 6 6 1 14 -10 8 -10 12 -21 10 -24z m90 16 c-3 -9 -10 -16 -15 -16 -5 0
-4 9 3 20 14 22 21 20 12 -4z m76 14 c8 -5 12 -11 10 -14 -3 -2 -14 2 -24 10
-22 15 -10 19 14 4z m205 -8 c-3 -3 -11 0 -18 7 -9 10 -8 11 6 5 10 -3 15 -9
12 -12z m151 -10 c-17 -16 -18 -16 -5 5 7 12 15 20 18 17 3 -2 -3 -12 -13 -22z
m208 4 c-3 -9 -10 -16 -15 -16 -5 0 -4 9 3 20 14 22 21 20 12 -4z m76 14 c8
-5 12 -11 10 -14 -3 -2 -14 2 -24 10 -22 15 -10 19 14 4z m36 -22 c-9 -12 -16
-19 -16 -15 0 11 24 47 28 42 2 -2 -3 -14 -12 -27z m209 11 c-5 -16 -4 -19 5
-14 8 5 11 4 6 -3 -4 -6 -13 -9 -21 -6 -11 5 -12 10 -2 25 16 25 20 24 12 -2z
m75 11 c8 -5 12 -11 10 -14 -3 -2 -14 2 -24 10 -22 15 -10 19 14 4z m36 -22
c-9 -12 -16 -19 -16 -15 0 11 24 47 28 42 2 -2 -3 -14 -12 -27z m332 20 c-2
-6 -12 -12 -21 -14 -9 -1 -15 2 -11 7 3 5 10 7 15 4 5 -4 9 -1 9 4 0 6 3 11 6
11 3 0 4 -5 2 -12z m206 -4 c3 -8 2 -12 -4 -9 -6 3 -10 1 -10 -4 0 -6 -5 -11
-10 -11 -6 0 -5 8 2 20 15 24 14 24 22 4z m-1496 -14 c-7 -10 -14 -17 -17 -15
-4 4 18 35 25 35 2 0 -1 -9 -8 -20z m216 12 c3 -5 -1 -9 -9 -9 -8 0 -12 4 -9
9 3 4 7 8 9 8 2 0 6 -4 9 -8z m66 -12 c-24 -15 -36 -11 -14 4 10 8 21 12 24
10 2 -3 -2 -9 -10 -14z m120 0 c-6 -11 -13 -20 -16 -20 -2 0 0 9 6 20 6 11 13
20 16 20 2 0 0 -9 -6 -20z m54 12 c3 -5 -1 -9 -9 -9 -8 0 -12 4 -9 9 3 4 7 8
9 8 2 0 6 -4 9 -8z m266 -12 c-6 -11 -13 -20 -16 -20 -2 0 0 9 6 20 6 11 13
20 16 20 2 0 0 -9 -6 -20z m54 12 c3 -5 -1 -9 -9 -9 -8 0 -12 4 -9 9 3 4 7 8
9 8 2 0 6 -4 9 -8z m266 -12 c-6 -11 -13 -20 -16 -20 -2 0 0 9 6 20 6 11 13
20 16 20 2 0 0 -9 -6 -20z m54 12 c3 -5 -1 -9 -9 -9 -8 0 -12 4 -9 9 3 4 7 8
9 8 2 0 6 -4 9 -8z m69 1 c3 -5 -6 -9 -20 -10 -19 -1 -22 1 -12 8 17 11 26 11
32 2z m67 -8 c19 -22 8 -25 -12 -3 -10 10 -14 18 -9 18 5 0 14 -7 21 -15z
m130 -5 c-6 -11 -13 -20 -16 -20 -2 0 0 9 6 20 6 11 13 20 16 20 2 0 0 -9 -6
-20z m54 12 c3 -5 -1 -9 -9 -9 -8 0 -12 4 -9 9 3 4 7 8 9 8 2 0 6 -4 9 -8z
m-1322 -16 c7 4 8 2 4 -5 -4 -6 -12 -9 -17 -6 -5 4 -9 1 -9 -6 0 -7 -2 -10 -5
-7 -3 3 -2 13 2 24 4 11 8 13 11 6 2 -7 9 -9 14 -6z m-146 -25 c-4 -6 -13 -11
-19 -10 -9 0 -9 2 1 6 6 2 12 9 12 14 0 6 -5 7 -12 3 -7 -5 -8 -3 -3 5 5 9 11
9 17 3 6 -6 7 -15 4 -21z m389 19 c-3 -5 -1 -10 4 -10 6 0 11 -5 11 -11 0 -5
-5 -7 -12 -3 -8 5 -9 2 -5 -10 4 -10 3 -15 -3 -11 -5 3 -8 16 -6 28 6 28 5 27
12 27 3 0 2 -4 -1 -10z m251 -19 c-4 -6 -13 -11 -19 -10 -9 0 -9 2 1 6 6 2 12
9 12 14 0 6 -5 7 -12 3 -7 -5 -8 -3 -3 5 5 9 11 9 17 3 6 -6 7 -15 4 -21z m69
19 c-3 -5 -1 -10 4 -10 6 0 11 -5 11 -11 0 -5 -5 -7 -12 -3 -8 5 -9 2 -5 -10
4 -10 3 -15 -3 -11 -5 3 -8 16 -6 28 6 28 5 27 12 27 3 0 2 -4 -1 -10z m251
-19 c-9 -14 -26 -14 -26 0 0 5 5 7 12 3 8 -5 9 -1 4 12 -5 14 -4 16 5 7 6 -6
8 -16 5 -22z m69 19 c-3 -5 -1 -10 4 -10 6 0 11 -5 11 -11 0 -5 -5 -7 -12 -3
-8 5 -9 2 -5 -10 4 -10 3 -15 -3 -11 -5 3 -8 16 -6 28 6 28 5 27 12 27 3 0 2
-4 -1 -10z m241 -2 c4 -7 4 -10 -1 -6 -4 4 -14 0 -22 -10 -8 -9 -12 -11 -8 -4
3 6 0 12 -7 13 -10 0 3 9 29 18 1 1 5 -5 9 -11z m79 2 c-3 -5 -1 -10 4 -10 6
0 11 -5 11 -11 0 -5 -5 -7 -12 -3 -8 5 -9 2 -5 -10 4 -10 3 -15 -3 -11 -5 3
-8 16 -6 28 6 28 5 27 12 27 3 0 2 -4 -1 -10z m-1274 -14 c5 3 9 0 9 -5 0 -6
-5 -11 -11 -11 -5 0 -7 -6 -3 -12 4 -7 3 -10 -1 -5 -5 4 -10 18 -11 30 -2 12
0 16 2 9 3 -6 10 -10 15 -6z m97 0 c-7 -8 -15 -12 -17 -11 -5 6 10 25 20 25 5
0 4 -6 -3 -14z m320 0 c-7 -8 -15 -12 -17 -11 -5 6 10 25 20 25 5 0 4 -6 -3
-14z m320 0 c-7 -8 -15 -12 -17 -11 -5 6 10 25 20 25 5 0 4 -6 -3 -14z m320 0
c-7 -8 -15 -12 -17 -11 -5 6 10 25 20 25 5 0 4 -6 -3 -14z m40 0 c-7 -8 -15
-12 -17 -11 -5 6 10 25 20 25 5 0 4 -6 -3 -14z m37 5 c3 -5 2 -12 -3 -15 -5
-3 -9 1 -9 9 0 17 3 19 12 6z m96 -14 c-10 -9 -11 -8 -5 6 3 10 9 15 12 12 3
-3 0 -11 -7 -18z m159 19 c0 -2 -7 -7 -16 -10 -8 -3 -12 -2 -9 4 6 10 25 14
25 6z m-1624 -18 c3 -4 -1 -5 -10 -4 -8 1 -18 5 -22 8 -3 4 1 5 10 4 8 -1 18
-5 22 -8z m39 2 c3 -6 -1 -7 -9 -4 -18 7 -21 14 -7 14 6 0 13 -4 16 -10z m35
0 c0 -5 -4 -10 -10 -10 -5 0 -10 5 -10 10 0 6 5 10 10 10 6 0 10 -4 10 -10z
m324 2 c3 -5 -1 -9 -9 -9 -8 0 -15 4 -15 9 0 4 4 8 9 8 6 0 12 -4 15 -8z m80
-4 c-3 -4 -9 -8 -15 -8 -5 0 -9 4 -9 8 0 5 7 9 15 9 8 0 12 -4 9 -9z m240 4
c3 -5 -1 -9 -9 -9 -8 0 -15 4 -15 9 0 4 4 8 9 8 6 0 12 -4 15 -8z m320 0 c3
-5 -1 -9 -9 -9 -8 0 -15 4 -15 9 0 4 4 8 9 8 6 0 12 -4 15 -8z m601 -2 c-3 -5
-12 -10 -18 -10 -7 0 -6 4 3 10 19 12 23 12 15 0z m-70 -10 c3 -5 1 -10 -4
-10 -6 0 -11 5 -11 10 0 6 2 10 4 10 3 0 8 -4 11 -10z m-435 -10 c0 -5 -5 -10
-11 -10 -5 0 -7 5 -4 10 3 6 8 10 11 10 2 0 4 -4 4 -10z"/>
</g>
</svg>
